# xmcd
#
# Track frame offsets:
#   150
#   13106
#   25191
#   39188
#   51056
#   64275
#   80094
#   95496
#   109779
#   120020
#   130960
#   144303
#   156932
#   175273
#   191721
#   206777
#   223232
#   239530
#   258107
#   268219
#   288095
#   301098
#
# Disc length: 4240 seconds
#
# Revision: 0
# Processed by: cddbd v1.5.1PL0 Copyright (c) Steve Scherf et al.
# Submitted via: Media_Universe 3.0
#
DISCID=3b108e16
DTITLE=George Strait - Beyond The Blue Neon &Honkytonkville
DYEAR=1900
DGENRE=Country
TTITLE0=Beyond The Blue Neon
TTITLE1=Hollywood Squares
TTITLE2=Overnight Success
TTITLE3=Ace In The Hole
TTITLE4=Leavins Been Comin (for a long long time)
TTITLE5=Baby's Gotten Good At Goodbye
TTITLE6=Whats Going On In Your World
TTITLE7=Angel, Angelina
TTITLE8=Too Much Of Too Little
TTITLE9=Oh Me Oh My Sweet Baby
TTITLE10=She Used To Say That To Me
TTITLE11=Honkytonkville
TTITLE12=Look Who's Back From Town
TTITLE13=Cowboy's Like Us
TTITLE14=Tell Me Something Bad About Tulsa
TTITLE15=As Far As It Goes
TTITLE16=I Found Jesus On The Jailhouse Floor
TTITLE17=Desperately
TTITLE18=Honk If You Honky Tonk
TTITLE19=Heaven Is Missing An Angel
TTITLE20=Four Down And Twelve Across
TTITLE21=My Infinite Love
EXTD=
EXTT0=
EXTT1=
EXTT2=
EXTT3=
EXTT4=
EXTT5=
EXTT6=
EXTT7=
EXTT8=
EXTT9=
EXTT10=
EXTT11=
EXTT12=
EXTT13=
EXTT14=
EXTT15=
EXTT16=
EXTT17=
EXTT18=
EXTT19=
EXTT20=
EXTT21=
PLAYORDER=
